<svg width="512" height="512" viewBox="0 0 512 512" fill="none" xmlns="http://www.w3.org/2000/svg">
<g clip-path="url(#clip0_145_44)">
<path d="M242.332 127.54C248.629 116.633 264.371 116.633 270.668 127.54L419.434 385.21C425.731 396.117 417.86 409.75 405.266 409.75H107.734C95.1402 409.75 87.269 396.117 93.566 385.21L242.332 127.54Z" fill="url(#paint0_linear_145_44)"/>
<path d="M242.332 209.34C248.629 198.433 264.371 198.433 270.668 209.34L348.593 344.31C354.89 355.217 347.019 368.85 334.425 368.85H178.575C165.981 368.85 158.11 355.217 164.407 344.31L242.332 209.34Z" fill="#D9D9D9"/>
<path d="M369.481 216.358C373.8 208.876 384.6 208.876 388.919 216.358L490.973 393.12C495.293 400.602 489.893 409.954 481.253 409.954H277.147C268.507 409.954 263.108 400.602 267.427 393.12L369.481 216.358Z" fill="url(#paint1_linear_145_44)"/>
<path d="M369.481 272.473C373.8 264.991 384.6 264.991 388.919 272.473L442.376 365.063C446.696 372.545 441.296 381.897 432.657 381.897H325.744C317.104 381.897 311.704 372.545 316.024 365.063L369.481 272.473Z" fill="white"/>
<path d="M124.08 216.358C128.4 208.876 139.199 208.876 143.519 216.358L245.572 393.12C249.892 400.602 244.493 409.954 235.853 409.954H31.7463C23.1069 409.954 17.7072 400.602 22.027 393.12L124.08 216.358Z" fill="url(#paint2_linear_145_44)"/>
<path d="M124.08 272.473C128.4 264.991 139.199 264.991 143.519 272.473L196.976 365.063C201.295 372.545 195.896 381.897 187.256 381.897H80.3431C71.7037 381.897 66.304 372.545 70.6238 365.063L124.08 272.473Z" fill="white"/>
<path d="M242.332 127.54C248.629 116.633 264.371 116.633 270.668 127.54L419.434 385.21C425.731 396.117 417.86 409.75 405.266 409.75H107.734C95.1402 409.75 87.269 396.117 93.566 385.21L242.332 127.54Z" fill="url(#paint3_linear_145_44)"/>
<path d="M242.332 209.34C248.629 198.433 264.371 198.433 270.668 209.34L348.593 344.31C354.89 355.217 347.019 368.85 334.425 368.85H178.575C165.981 368.85 158.11 355.217 164.407 344.31L242.332 209.34Z" fill="white"/>
</g>
<defs>
<linearGradient id="paint0_linear_145_44" x1="256.5" y1="103" x2="256.5" y2="512" gradientUnits="userSpaceOnUse">
<stop stop-color="#EC008C"/>
<stop offset="1" stop-color="#FC6767"/>
</linearGradient>
<linearGradient id="paint1_linear_145_44" x1="379.2" y1="199.524" x2="379.2" y2="480.098" gradientUnits="userSpaceOnUse">
<stop stop-color="#EC008C"/>
<stop offset="1" stop-color="#FC6767"/>
</linearGradient>
<linearGradient id="paint2_linear_145_44" x1="133.8" y1="199.524" x2="133.8" y2="480.098" gradientUnits="userSpaceOnUse">
<stop stop-color="#EC008C"/>
<stop offset="1" stop-color="#FC6767"/>
</linearGradient>
<linearGradient id="paint3_linear_145_44" x1="256.5" y1="103" x2="256.5" y2="512" gradientUnits="userSpaceOnUse">
<stop stop-color="#EC008C"/>
<stop offset="1" stop-color="#FC6767"/>
</linearGradient>
<clipPath id="clip0_145_44">
<rect width="512" height="512" fill="white"/>
</clipPath>
</defs>
</svg>
